<mxfile host="app.diagrams.net" modified="2021-11-25T11:27:28.919Z" agent="5.0 (Windows NT 10.0; Win64; x64) AppleWebKit/537.36 (KHTML, like Gecko) Chrome/95.0.4638.69 Safari/537.36" etag="Oj6Uv3MoA-KFp6nlI9Sj" version="15.7.4" type="github">
  <diagram name="Page-1" id="3e8102d1-ef87-2e61-34e1-82d9a586fe2e">
    <mxGraphModel dx="2522" dy="825" grid="1" gridSize="10" guides="1" tooltips="1" connect="1" arrows="1" fold="1" page="1" pageScale="1" pageWidth="1100" pageHeight="850" background="none" math="0" shadow="0">
      <root>
        <mxCell id="0" />
        <mxCell id="1" parent="0" />
        <mxCell id="NX3kP4LZ0dh-7WgNivBp-2" value="&lt;font style=&quot;font-size: 16px&quot;&gt;Byggevareproducenten&lt;/font&gt;" style="shadow=0;dashed=0;html=1;labelPosition=center;verticalLabelPosition=bottom;verticalAlign=top;shape=mxgraph.office.concepts.on_premises;rounded=0;comic=0;fontFamily=Verdana;fontSize=14;fillColor=#ffcc99;strokeColor=#36393d;labelBackgroundColor=default;" parent="1" vertex="1">
          <mxGeometry x="-31.66" y="70" width="83.31" height="95" as="geometry" />
        </mxCell>
        <mxCell id="NX3kP4LZ0dh-7WgNivBp-9" value="&lt;span style=&quot;font-size: 16px&quot;&gt;Kvalitetskontrol&lt;/span&gt;" style="sketch=0;pointerEvents=1;shadow=0;dashed=0;html=1;labelPosition=center;verticalLabelPosition=bottom;verticalAlign=top;outlineConnect=0;align=center;shape=mxgraph.office.concepts.lab;labelBackgroundColor=default;fillColor=#ffcc99;strokeColor=#36393d;" parent="1" vertex="1">
          <mxGeometry x="-180" y="108.3" width="70" height="74.47" as="geometry" />
        </mxCell>
        <mxCell id="NX3kP4LZ0dh-7WgNivBp-17" value="&lt;font style=&quot;font-size: 16px&quot;&gt;Bygningen&lt;/font&gt;" style="sketch=0;pointerEvents=1;shadow=0;dashed=0;html=1;labelPosition=center;verticalLabelPosition=bottom;verticalAlign=top;outlineConnect=0;align=center;shape=mxgraph.office.concepts.home;labelBackgroundColor=default;" parent="1" vertex="1">
          <mxGeometry x="-61" y="540" width="61" height="57" as="geometry" />
        </mxCell>
        <mxCell id="NX3kP4LZ0dh-7WgNivBp-18" value="&lt;font style=&quot;font-size: 16px&quot;&gt;Nedriveren&lt;/font&gt;" style="shape=mxgraph.signs.transportation.truck_1;html=1;pointerEvents=1;verticalLabelPosition=bottom;verticalAlign=top;align=center;sketch=0;labelBackgroundColor=default;fillColor=#ffcc99;strokeColor=#36393d;" parent="1" vertex="1">
          <mxGeometry x="-310" y="394" width="119" height="61.3" as="geometry" />
        </mxCell>
        <mxCell id="NX3kP4LZ0dh-7WgNivBp-25" value="" style="sketch=0;pointerEvents=1;shadow=0;dashed=0;html=1;labelPosition=center;verticalLabelPosition=bottom;verticalAlign=top;outlineConnect=0;align=center;shape=mxgraph.office.concepts.maintenance;fontSize=16;fillColor=#ffcc99;strokeColor=#36393d;" parent="1" vertex="1">
          <mxGeometry x="-231.95" y="273" width="20.89" height="30" as="geometry" />
        </mxCell>
        <mxCell id="NX3kP4LZ0dh-7WgNivBp-26" value="Forarbejdning" style="sketch=0;pointerEvents=1;shadow=0;dashed=0;html=1;labelPosition=center;verticalLabelPosition=bottom;verticalAlign=top;outlineConnect=0;align=center;shape=mxgraph.office.concepts.settings;fontSize=16;labelBackgroundColor=default;fillColor=#ffcc99;strokeColor=#36393d;" parent="1" vertex="1">
          <mxGeometry x="-266.5" y="243" width="90" height="90" as="geometry" />
        </mxCell>
        <mxCell id="NX3kP4LZ0dh-7WgNivBp-30" value="&lt;font style=&quot;font-size: 16px&quot;&gt;Byggevare&lt;/font&gt;" style="sketch=0;pointerEvents=1;shadow=0;dashed=0;html=1;labelPosition=center;verticalLabelPosition=bottom;verticalAlign=top;outlineConnect=0;align=center;shape=mxgraph.office.concepts.firewall;labelBackgroundColor=default;" parent="1" vertex="1">
          <mxGeometry x="-156.6" y="337.05999999999995" width="47" height="43" as="geometry" />
        </mxCell>
        <mxCell id="NX3kP4LZ0dh-7WgNivBp-32" value="Resource" style="rounded=0;whiteSpace=wrap;html=1;labelBackgroundColor=default;fontSize=16;labelPosition=center;verticalLabelPosition=bottom;align=center;verticalAlign=top;" parent="1" vertex="1">
          <mxGeometry x="-118" y="236" width="26" height="10" as="geometry" />
        </mxCell>
        <mxCell id="YHJI_16dnGBZ-90retBK-1" value="&lt;span style=&quot;font-size: 16px&quot;&gt;Kvalitetskontrol&lt;/span&gt;" style="sketch=0;pointerEvents=1;shadow=0;dashed=0;html=1;labelPosition=center;verticalLabelPosition=bottom;verticalAlign=top;outlineConnect=0;align=center;shape=mxgraph.office.concepts.lab;labelBackgroundColor=default;fillColor=#ffcc99;strokeColor=#36393d;" parent="1" vertex="1">
          <mxGeometry x="-211.06" y="503" width="81.78" height="87" as="geometry" />
        </mxCell>
        <mxCell id="YHJI_16dnGBZ-90retBK-2" value="&lt;font style=&quot;font-size: 16px&quot;&gt;Byggevare&lt;/font&gt;" style="sketch=0;pointerEvents=1;shadow=0;dashed=0;html=1;labelPosition=center;verticalLabelPosition=bottom;verticalAlign=top;outlineConnect=0;align=center;shape=mxgraph.office.concepts.firewall;labelBackgroundColor=default;" parent="1" vertex="1">
          <mxGeometry x="-110" y="439.99999999999994" width="47" height="43" as="geometry" />
        </mxCell>
        <mxCell id="YHJI_16dnGBZ-90retBK-3" value="" style="rounded=0;whiteSpace=wrap;html=1;labelBackgroundColor=default;fontSize=16;labelPosition=center;verticalLabelPosition=bottom;align=center;verticalAlign=top;" parent="1" vertex="1">
          <mxGeometry x="-90" y="236" width="26" height="10" as="geometry" />
        </mxCell>
        <mxCell id="YHJI_16dnGBZ-90retBK-4" value="" style="rounded=0;whiteSpace=wrap;html=1;labelBackgroundColor=default;fontSize=16;labelPosition=center;verticalLabelPosition=bottom;align=center;verticalAlign=top;" parent="1" vertex="1">
          <mxGeometry x="-103.5" y="223.5" width="26" height="10" as="geometry" />
        </mxCell>
        <mxCell id="YHJI_16dnGBZ-90retBK-5" value="" style="rounded=0;whiteSpace=wrap;html=1;labelBackgroundColor=default;fontSize=16;labelPosition=center;verticalLabelPosition=bottom;align=center;verticalAlign=top;" parent="1" vertex="1">
          <mxGeometry x="-147" y="236" width="26" height="10" as="geometry" />
        </mxCell>
        <mxCell id="YHJI_16dnGBZ-90retBK-6" value="" style="rounded=0;whiteSpace=wrap;html=1;labelBackgroundColor=default;fontSize=16;labelPosition=center;verticalLabelPosition=bottom;align=center;verticalAlign=top;" parent="1" vertex="1">
          <mxGeometry x="-132" y="223.5" width="26" height="10" as="geometry" />
        </mxCell>
      </root>
    </mxGraphModel>
  </diagram>
</mxfile>
